<svg width="120" height="130" viewBox="50 0 120 130" fill="none" xmlns="http://www.w3.org/2000/svg"><path fill="#fff" d="M0 0h220v130H0z"/><path d="M149.696 51.194a15.54 15.54 0 00-10.266-14.666 22.04 22.04 0 00.41-4.242 22.296 22.296 0 00-40.375-13.038A11.843 11.843 0 0081.099 32.73a15.737 15.737 0 00-10.358 14.706 15.55 15.55 0 0010.325 14.696 22.578 22.578 0 00-.407 4.242 22.233 22.233 0 0040.332 12.96 11.818 11.818 0 0014.258.222 11.823 11.823 0 004.096-13.659 15.738 15.738 0 0010.351-14.703" fill="#fff"/><path d="M101.778 43.865l17.273 7.872 17.445-15.267a19.26 19.26 0 00.367-3.832 19.482 19.482 0 00-35.565-11l-2.897 15.033 3.377 7.194z" fill="#FEC514"/><path d="M83.901 62.158a19.764 19.764 0 00-.367 3.886 19.524 19.524 0 0035.679 10.981l2.878-14.988-3.838-7.333-17.358-7.91-16.994 15.364z" fill="#00BFB3"/><path d="M83.791 32.264l11.836 2.794 2.596-13.46A9.357 9.357 0 0083.79 32.265" fill="#F04E98"/><path d="M82.764 35.084a13.053 13.053 0 00-.569 24.595l16.61-15.01-3.051-6.516-12.99-3.069z" fill="#1BA9F5"/><path d="M122.238 77.025a9.3 9.3 0 0014.967-7.399 9.375 9.375 0 00-.565-3.245l-11.828-2.768-2.574 13.412z" fill="#93C90E"/><path d="M124.643 60.511l13.02 3.047a13.173 13.173 0 008.968-12.4 13.03 13.03 0 00-8.415-12.177l-17.03 14.923 3.457 6.607z" fill="#07C"/><path d="M77.833 117.404l1.026-.106.07 2.094a50.934 50.934 0 01-6.911.564c-2.555 0-4.363-.733-5.427-2.2-1.063-1.466-1.593-3.77-1.591-6.911 0-6.214 2.47-9.322 7.41-9.324 2.386 0 4.17.667 5.353 2.002 1.183 1.335 1.775 3.433 1.775 6.295l-.143 2.021h-11.7c0 1.955.354 3.408 1.063 4.359.709.951 1.945 1.424 3.707 1.419 1.76 0 3.55-.071 5.368-.213zm-.954-7.677c0-2.176-.35-3.712-1.048-4.609-.7-.897-1.833-1.347-3.403-1.349-1.574 0-2.756.473-3.545 1.418-.79.946-1.198 2.46-1.225 4.54h9.221zm6.366 10.094V96.483H85.9v23.338h-2.655zm19.406-12.591v8.942c0 .884 2.2.851 2.2.851l-.135 2.35c-1.87 0-3.414.154-4.345-.733a15.453 15.453 0 01-6.38 1.327c-1.633 0-2.873-.461-3.721-1.382-.849-.922-1.271-2.249-1.269-3.982 0-1.723.438-2.993 1.313-3.809.875-.817 2.245-1.319 4.11-1.507l5.566-.532v-1.525c0-1.208-.26-2.071-.778-2.589a2.877 2.877 0 00-2.126-.781h-6.989v-2.346H96.9c2.009 0 3.468.46 4.377 1.382.91.921 1.368 2.366 1.375 4.334zm-10.922 7.23c0 2.178.898 3.266 2.695 3.263 1.623 0 3.235-.275 4.766-.814l.814-.286v-5.848l-5.247.495c-1.063.096-1.83.404-2.302.924-.488.517-.726 1.276-.726 2.266zm21.302-10.563c-2.574 0-3.862.898-3.865 2.694a1.866 1.866 0 00.888 1.753c.589.345 1.933.699 4.033 1.063 2.099.365 3.588.879 4.466 1.544.872.662 1.31 1.903 1.312 3.721.003 1.819-.583 3.155-1.756 4.008-1.169.851-2.88 1.276-5.133 1.276-1.467 0-6.358-.543-6.358-.543l.143-2.302c2.809.271 4.843.469 6.233.469 1.39 0 2.416-.216 3.139-.653.722-.436 1.081-1.173 1.081-2.2 0-1.026-.308-1.727-.924-2.093-.616-.367-1.961-.715-4.033-1.045-2.071-.33-3.56-.814-4.433-1.467-.872-.652-1.312-1.833-1.312-3.545s.608-3.003 1.833-3.832a7.943 7.943 0 014.557-1.239c1.441 0 6.442.367 6.442.367v2.317c-2.647-.106-4.803-.293-6.313-.293zm19.667.282h-5.639v8.481c0 2.033.148 3.369.444 4.007.297.638.997.957 2.108.957l3.157-.213.176 2.2a24.514 24.514 0 01-3.615.389c-1.846 0-3.121-.449-3.828-1.346-.706-.897-1.061-2.608-1.063-5.133v-9.342h-2.519v-2.303h2.519V96.45h2.621v5.426h5.639v2.303zm3.696-4.569v-3.083h2.669v3.084h-2.669zm0 20.21v-17.943h2.669v17.943h-2.669zm14.178-18.299c1.332.056 2.658.198 3.971.425l.851.107-.107 2.163a41.506 41.506 0 00-4.183-.319c-2.009 0-3.374.478-4.096 1.433-.721.956-1.081 2.73-1.081 5.321 0 2.588.337 4.391 1.012 5.408.674 1.017 2.074 1.524 4.198 1.521l4.187-.319.106 2.2a36.56 36.56 0 01-4.931.495c-2.765 0-4.672-.709-5.723-2.126-1.051-1.418-1.578-3.811-1.581-7.179 0-3.369.569-5.732 1.705-7.091 1.137-1.359 3.028-2.039 5.672-2.039z" fill="#1C1E23"/></svg>