<svg xmlns="http://www.w3.org/2000/svg" viewBox="0 0 344.04 51.59"><path d="M74.37 1.2A26.15 26.15 0 0060.32.75 16.58 16.58 0 0055 3.08a17.27 17.27 0 00-4.47 4.66 22.58 22.58 0 00-1.94-3 11.11 11.11 0 00-1.95-1.86A13 13 0 0044 1.44a19 19 0 00-3.56-1A23.5 23.5 0 0035.91 0a23.9 23.9 0 00-4.13.34 21.52 21.52 0 00-3.56.89 14.54 14.54 0 00-3.08 1.49 13.79 13.79 0 00-2.51 2 33.17 33.17 0 00-2.54 2.95l.34-6.39c-2.88.06-5.85.1-8.89.1-2.7 0-5.81 0-9.33-.1L2.11 9l-.77 18.16L0 50.34c3.94-.06 7.26-.1 9.92-.1 2.4 0 5.54 0 9.44.1q.06-6.87.43-14.33c.22-5 .46-8.66.74-11.08a18.22 18.22 0 011.39-5.7 8.82 8.82 0 012.39-3.17A5.1 5.1 0 0127.58 15a4.1 4.1 0 012.75.87A5.64 5.64 0 0132 18.13a12.12 12.12 0 01.58 4.32c0 2.28-.21 6.78-.59 13.51s-.74 11.53-1 14.38c3.82-.06 7.13-.1 10-.1s5.84 0 9.27.1l.38-12.89q.2-6.44.53-10.38a30.37 30.37 0 01.83-5.76 12.9 12.9 0 011.9-4 5.56 5.56 0 012-1.79 5.45 5.45 0 012.5-.54 5.72 5.72 0 012.49.56 4.28 4.28 0 011.86 2.1 11.47 11.47 0 01.72 4.65c0 2.37-.18 6.63-.51 12.77s-.68 11.24-1 15.31c3.69-.06 7.21-.1 10.58-.1 2.74 0 5.59 0 8.54.1q0-4.38.61-15.27t.88-15.36q.31-4.47.31-6.68a11.84 11.84 0 00-2.38-7.67 12.62 12.62 0 00-6.13-4.19zm48.69.05l-.37 10.05q-.34 7-.52 9.81a53.3 53.3 0 01-.82 6.44 14.43 14.43 0 01-1.16 3.45 9.1 9.1 0 01-1.45 2.21 7.7 7.7 0 01-1.69 1.45 10.06 10.06 0 01-2.21 1 8.44 8.44 0 01-2.31.34 7.26 7.26 0 01-4.9-1.78q-2-1.78-2-6.83v-2c0-1 .14-2.91.36-5.7l1.49-18.32c-3.4.06-6.51.1-9.33.1S92 1.31 88 1.25q0 4-.19 8.46c-.2 4.87-.4 9.31-.63 13.32l-.78 10.91c-.09 1.22-.14 2.12-.14 2.7a18.89 18.89 0 00.94 6.25 10.79 10.79 0 003.51 4.8 15.21 15.21 0 006 3 28.33 28.33 0 007.19.89 31.1 31.1 0 004.64-.34 22.63 22.63 0 004-.93 19.3 19.3 0 003.17-1.42 15.93 15.93 0 002.62-1.9 28.27 28.27 0 002.93-3.25l.06 6.59c3-.06 6.07-.1 9.09-.1 2.44 0 5.48 0 9.14.1q.33-14.87 1-25.87t1.72-23.22c-3 .06-6 .1-9 .1-2.68.01-6.08-.03-10.21-.09zm44.15 12.42a14.18 14.18 0 015.5-.78 30.33 30.33 0 0111.21 2.3l-.77-13.46A108.52 108.52 0 00166.08 0a33 33 0 00-10.84 1.56 12.82 12.82 0 00-6.73 5 13.2 13.2 0 00-2.29 7.44 12.51 12.51 0 00.79 4.37 14 14 0 002.3 3.95 29.94 29.94 0 004.51 4.18q3 2.36 6.93 5.24a10.8 10.8 0 012.28 2 2.75 2.75 0 01.5 1.52 2.59 2.59 0 01-.67 1.68 4.23 4.23 0 01-2.13 1.25 13.86 13.86 0 01-3.82.43 23.87 23.87 0 01-6.18-.89 73 73 0 01-8-2.71l.39 3.46q.42 4.08.62 6.42c.13 1.55.26 3 .39 4.45 3.71.8 7 1.36 9.78 1.68a63.74 63.74 0 007 .48 42.46 42.46 0 008-.75 23 23 0 007.23-2.66 13.21 13.21 0 005-4.79 12.25 12.25 0 001.66-6.27 12.44 12.44 0 00-.75-4.31A13.58 13.58 0 00179.9 29a24.18 24.18 0 00-4.11-3.92c-1.09-.87-2.6-2-4.52-3.32s-3.13-2.2-3.63-2.57a10.15 10.15 0 01-1.25-1.08 3.24 3.24 0 01-.7-1 2.87 2.87 0 01-.19-1 2.53 2.53 0 011.71-2.44zM260.66 1.2A26.19 26.19 0 00246.6.75a16.58 16.58 0 00-5.37 2.33 17.27 17.27 0 00-4.47 4.66 21.61 21.61 0 00-1.94-3 11.11 11.11 0 00-1.95-1.86 12.77 12.77 0 00-2.6-1.44 18.81 18.81 0 00-3.56-1A23.4 23.4 0 00222.2 0a23.93 23.93 0 00-4.14.34 21.77 21.77 0 00-3.56.89 14.24 14.24 0 00-3.07 1.49 14 14 0 00-2.53 2 31.88 31.88 0 00-2.52 2.95l.33-6.39c-2.88.06-5.85.1-8.89.1-2.69 0-5.8 0-9.34-.1L188.39 9l-.76 18.12-1.35 23.18c3.94-.06 7.25-.1 9.91-.1 2.41 0 5.56 0 9.44.1q.09-6.87.43-14.33t.75-11.08a18.5 18.5 0 011.39-5.7 8.8 8.8 0 012.38-3.17 5.1 5.1 0 013.27-1.02 4.16 4.16 0 012.77.87 5.71 5.71 0 011.61 2.31 12.35 12.35 0 01.58 4.32q0 3.42-.59 13.51t-1 14.38c3.82-.06 7.13-.1 9.95-.1s5.84 0 9.27.1l.39-12.89c.12-4.29.3-7.75.52-10.38a30.21 30.21 0 01.92-5.76 13.11 13.11 0 011.88-4 5.59 5.59 0 012-1.79 5.49 5.49 0 012.51-.54 5.68 5.68 0 012.48.56 4.22 4.22 0 011.85 2.1 11.28 11.28 0 01.73 4.65q0 3.55-.51 12.77t-1 15.31c3.67-.06 7.2-.1 10.57-.1 2.74 0 5.6 0 8.54.1q0-4.38.61-15.27t.88-15.36q.31-4.47.31-6.68a11.84 11.84 0 00-2.38-7.67 12.64 12.64 0 00-6.08-4.24zm60.06 49.14q.15-5.82.33-11a233.98 233.98 0 01-12.66 10.89q6.14-.02 12.33.11zm.96-21.25c.08-1.21.16-2.37.24-3.46.48-6.29.72-10.32.72-12.12 0-3.53-.88-6.23-2.64-8.13a15.26 15.26 0 00-7.37-4.11A39.68 39.68 0 00302.25 0a113.86 113.86 0 00-23.8 3c-.35 2.56-.61 4.45-.77 5.65s-.55 3.39-1.16 6.56q12.17-4.66 20.43-4.66a8.46 8.46 0 014.51 1 3.16 3.16 0 011.54 2.83 3.41 3.41 0 01-.24 1.27 3.34 3.34 0 01-.76 1.15 5.11 5.11 0 01-1.44 1 20.57 20.57 0 01-3 1c-1.39.37-2.92.71-4.59 1a81.77 81.77 0 00-9.97 2.41 27.47 27.47 0 00-6.14 2.79 16.6 16.6 0 00-3.94 3.53 14.94 14.94 0 00-2.48 4.23 12.74 12.74 0 00-.79 4.43 14.66 14.66 0 002.14 7.4 12.4 12.4 0 006.11 5.36 25.73 25.73 0 009.92 1.66h.33a14.93 14.93 0 003.44-.65c1.68-.52 4.59-1.48 8.24-2.91l2.32-.94 1.48-.62a125.76 125.76 0 0017.62-9.2c2.67-1.69 5.34-3.55 7.92-5.57C330.37 30.63 331 30 331 30l1.82-11.3s-5.14 5.35-11.14 10.39zm-19 9.75c-1.38.46-6.15 2-6.92 2.1a15.25 15.25 0 01-2.16.17 6.1 6.1 0 01-4.09-1.11 3.57 3.57 0 01-1.3-2.78 4.13 4.13 0 01.45-1.93 5.39 5.39 0 011.54-1.68 9.72 9.72 0 012.54-1.35c1-.35 2.33-.78 4.05-1.29s2.93-.9 3.62-1.16 1.65-.67 2.86-1.25q-.27 5.83-.55 10.28zM344 19.2a4.65 4.65 0 11-4.64-4.65A4.64 4.64 0 01344 19.2z" fill="#a40e07"/></svg>